<svg width="933.3351318359374px" height="120.8px" xmlns="http://www.w3.org/2000/svg" viewBox="-216.66756591796872 14.600000000000001 933.3351318359374 120.8" style="background: rgba(0, 0, 0, 0);" preserveAspectRatio="xMidYMid"><defs><filter id="editing-extrude-glow"><feFlood flood-color="#333333" result="flood-1"></feFlood><feMorphology operator="erode" radius="1" in="SourceAlpha" result="erode"></feMorphology><feComposite operator="in" in="flood-1" in2="erode" result="comp1"></feComposite><feConvolveMatrix order="3,3" divisor="1" in="comp1" result="convolve" kernelMatrix="0 0 0 1 1 1 0 0 0"></feConvolveMatrix><feOffset dx="-3" dy="0" in="convolve" result="extrude"></feOffset><feComposite operator="in" in="flood-1" in2="extrude" result="comp-extrude"></feComposite><feFlood flood-color="#000000" result="flood-2"></feFlood><feComposite operator="in" in="flood-2" in2="SourceAlpha" result="comp2"></feComposite><feMorphology operator="dilate" radius="1" in="comp2" result="dilate"></feMorphology><feOffset dx="-4.5" dy="0" in="dilate" result="offset"></feOffset><feGaussianBlur in="offset" stdDeviation="5.8" result="blur"></feGaussianBlur><feComponentTransfer in="blur" result="shadow"><feFuncA type="linear" slope="0.8" intercept="-0.2"></feFuncA></feComponentTransfer><feMerge><feMergeNode in="shadow"></feMergeNode><feMergeNode in="comp-extrude"></feMergeNode><feMergeNode in="SourceGraphic"></feMergeNode></feMerge></filter></defs><g filter="url(#editing-extrude-glow)"><g transform="translate(-85.00496950745583, 103.2249984741211)"><path d="M24.96-4.80L24.96-4.80L24.96-4.80Q24.96-9.28 26.75-18.24L26.75-18.24L17.28-18.24L13.76 0L0.38 0L8.51-42.24L22.02-42.24L18.30-23.36L27.78-23.36L31.30-42.24L44.80-42.24L44.80-42.24Q43.90-37.50 42.75-32.19L42.75-32.19L40.58-21.76L40.58-21.76Q38.14-9.60 38.14-4.29L38.14-4.29L38.14-4.29Q38.14-2.11 38.85-0.90L38.85-0.90L38.85-0.90Q35.65 1.28 31.90 1.28L31.90 1.28L31.90 1.28Q28.16 1.28 26.56-0.51L26.56-0.51L26.56-0.51Q24.96-2.30 24.96-4.80ZM47.30-15.62L47.30-15.62L47.30-15.62Q47.30-27.71 53.57-35.33L53.57-35.33L53.57-35.33Q60.22-43.58 71.81-43.58L71.81-43.58L71.81-43.58Q80.19-43.58 84.42-39.52L84.42-39.52L84.42-39.52Q88.64-35.46 88.64-26.88L88.64-26.88L88.64-26.88Q88.64-13.82 81.98-6.21L81.98-6.21L81.98-6.21Q75.39 1.28 64.32 1.28L64.32 1.28L64.32 1.28Q55.68 1.28 51.49-3.04L51.49-3.04L51.49-3.04Q47.30-7.36 47.30-15.62ZM64.13-28.86L64.13-28.86L64.13-28.86Q61.25-17.34 61.25-8.26L61.25-8.26L61.25-8.26Q61.25-6.08 61.98-4.67L61.98-4.67L61.98-4.67Q62.72-3.26 64.67-3.26L64.67-3.26L64.67-3.26Q66.62-3.26 67.84-4.19L67.84-4.19L67.84-4.19Q69.06-5.12 70.02-7.23L70.02-7.23L70.02-7.23Q71.55-10.69 72.99-18.02L72.99-18.02L72.99-18.02Q74.43-25.34 74.56-28.38L74.56-28.38L74.56-28.38Q74.69-31.42 74.69-33.73L74.69-33.73L74.69-33.73Q74.69-36.03 73.98-37.50L73.98-37.50L73.98-37.50Q73.28-38.98 71.39-38.98L71.39-38.98L71.39-38.98Q69.50-38.98 68.22-37.82L68.22-37.82L68.22-37.82Q65.86-35.65 64.13-28.86ZM63.74-44.42L62.14-47.94L74.50-54.78L83.20-48.13L80.38-44.74L73.02-47.87L63.74-44.42ZM97.22 0L89.86 0L101.44-42.24L114.82-42.24L117.76-18.11L129.66-42.24L140.86-42.24L142.02-10.62L142.02-10.62Q142.27-4.35 145.34-2.43L145.34-2.43L145.34-2.43Q144.64-1.15 142.59 0.06L142.59 0.06L142.59 0.06Q140.54 1.28 137.82 1.28L137.82 1.28L137.82 1.28Q135.10 1.28 133.50 0.51L133.50 0.51L133.50 0.51Q131.90-0.26 131.01-1.54L131.01-1.54L131.01-1.54Q129.41-3.84 129.41-8.26L129.41-8.26L129.41-28.03L116.80 0L108.86 0L104.38-28.74L97.22 0ZM167.87 0L160.83 0L168.51-42.24L182.27-42.24L192.26-13.18L197.57-42.24L204.67-42.18L196.86 0L182.21 0L172.99-27.97L167.87 0ZM234.37 1.28L234.37 1.28L234.37 1.28Q226.18 1.28 225.41-10.37L225.41-10.37L214.40-10.37L214.40-10.37Q213.12-7.42 212.22-4.86L212.22-4.86L210.56 0L201.60 0L221.76-42.24L235.52-42.24L238.21-11.14L238.21-11.14Q238.85-4.42 241.41-2.43L241.41-2.43L241.41-2.43Q239.55 1.28 234.37 1.28ZM219.90-23.17L216.38-15.04L225.22-15.04L224.45-31.49L224.45-33.22L219.90-23.17ZM248.51 0L252.22-18.82L252.22-18.82Q250.37-36.16 243.84-39.87L243.84-39.87L243.84-39.87Q245.18-41.54 247.36-42.46L247.36-42.46L247.36-42.46Q249.54-43.39 252.16-43.39L252.16-43.39L252.16-43.39Q254.78-43.39 256.77-42.46L256.77-42.46L256.77-42.46Q258.75-41.54 260.03-39.55L260.03-39.55L260.03-39.55Q262.46-35.78 262.46-26.75L262.46-26.75L262.46-22.14L262.46-22.14Q266.30-33.41 270.14-38.27L270.14-38.27L270.14-38.27Q274.05-43.26 278.91-43.26L278.91-43.26L278.91-43.26Q280.83-43.26 282.11-42.27L282.11-42.27L282.11-42.27Q283.39-41.28 284.03-39.81L284.03-39.81L284.03-39.81Q279.10-37.63 274.37-31.36L274.37-31.36L274.37-31.36Q269.63-25.09 266.56-16.32L266.56-16.32L262.78 0L248.51 0ZM320.51-9.86L320.51-9.86L320.51-9.86Q321.73-8.32 321.73-5.34L321.73-5.34L321.73-5.34Q321.73-2.37 319.46-0.54L319.46-0.54L319.46-0.54Q317.18 1.28 313.22 1.28L313.22 1.28L313.22 1.28Q310.91 1.28 307.33 0.77L307.33 0.77L307.33 0.77Q300.29-0.32 298.27-0.32L298.27-0.32L298.27-0.32Q296.26-0.32 295.42-0.22L295.42-0.22L295.42-0.22Q294.59-0.13 293.25 0L293.25 0L300.99-42.24L315.01-42.24L308.61-7.04L308.61-7.04Q309.44-6.91 310.21-6.91L310.21-6.91L311.81-6.91L311.81-6.91Q317.18-6.91 320.51-9.86ZM354.11 1.28L354.11 1.28L354.11 1.28Q345.92 1.28 345.15-10.37L345.15-10.37L334.14-10.37L334.14-10.37Q332.93-7.42 331.97-4.86L331.97-4.86L330.30 0L321.34 0L341.50-42.24L355.26-42.24L357.95-11.14L357.95-11.14Q358.59-4.42 361.15-2.43L361.15-2.43L361.15-2.43Q359.30 1.28 354.11 1.28ZM339.65-23.17L336.13-15.04L344.96-15.04L344.19-31.49L344.19-33.22L339.65-23.17ZM338.50-52.10L338.50-52.10L338.50-52.10Q338.50-53.89 340.29-55.17L340.29-55.17L355.97-48.64L355.20-45.50L347.58-45.76L347.58-45.76Q338.50-46.08 338.50-52.10ZM383.49 0L376.13 0L387.71-42.24L401.09-42.24L404.03-18.11L415.94-42.24L427.14-42.24L428.29-10.62L428.29-10.62Q428.54-4.35 431.62-2.43L431.62-2.43L431.62-2.43Q430.91-1.15 428.86 0.06L428.86 0.06L428.86 0.06Q426.82 1.28 424.10 1.28L424.10 1.28L424.10 1.28Q421.38 1.28 419.78 0.51L419.78 0.51L419.78 0.51Q418.18-0.26 417.28-1.54L417.28-1.54L417.28-1.54Q415.68-3.84 415.68-8.26L415.68-8.26L415.68-28.03L403.07 0L395.14 0L390.66-28.74L383.49 0ZM435.58-9.47L435.58-9.47L435.58-9.47Q435.58-11.97 436.22-15.17L436.22-15.17L441.41-42.24L455.55-42.24L450.43-14.98L450.43-14.98Q449.86-11.97 449.86-9.76L449.86-9.76L449.86-9.76Q449.86-7.55 450.78-6.40L450.78-6.40L450.78-6.40Q451.71-5.25 453.44-5.25L453.44-5.25L453.44-5.25Q455.17-5.25 456.26-5.70L456.26-5.70L456.26-5.70Q457.34-6.14 458.24-7.23L458.24-7.23L458.24-7.23Q459.97-9.41 461.06-14.98L461.06-14.98L466.24-42.24L475.90-42.24L470.78-15.04L470.78-15.04Q468.99-5.95 464.06-2.30L464.06-2.30L464.06-2.30Q459.26 1.28 449.79 1.28L449.79 1.28L449.79 1.28Q442.69 1.28 438.91-1.79L438.91-1.79L438.91-1.79Q435.58-4.48 435.58-9.47ZM450.18-51.97L450.18-51.97L450.18-51.97Q450.18-53.82 451.97-55.10L451.97-55.10L467.65-48.58L466.88-45.44L459.26-45.70L459.26-45.70Q450.18-46.02 450.18-51.97ZM483.78 0L476.74 0L484.42-42.24L498.18-42.24L508.16-13.18L513.47-42.24L520.58-42.18L512.77 0L498.11 0L488.90-27.97L483.78 0ZM548.10-20.61L561.02-21.76L561.02-21.76Q556.42-11.65 556.42 0.06L556.42 0.06L556.42 0.06Q554.69 1.28 552.16 1.28L552.16 1.28L552.16 1.28Q549.63 1.28 548.03 0.10L548.03 0.10L548.03 0.10Q546.43-1.09 546.11-2.30L546.11-2.30L546.11-2.30Q544.51-0.64 541.92 0.32L541.92 0.32L541.92 0.32Q539.33 1.28 536.58 1.28L536.58 1.28L536.58 1.28Q533.82 1.28 531.42 0.38L531.42 0.38L531.42 0.38Q529.02-0.51 527.17-2.50L527.17-2.50L527.17-2.50Q523.07-6.85 523.07-15.10L523.07-15.10L523.07-15.10Q523.07-27.90 529.92-35.58L529.92-35.58L529.92-35.58Q536.96-43.52 549.44-43.52L549.44-43.52L549.44-43.52Q558.08-43.52 561.15-39.04L561.15-39.04L561.15-39.04Q562.11-37.63 562.11-35.94L562.11-35.94L562.11-35.94Q562.11-34.24 561.38-32.80L561.38-32.80L561.38-32.80Q560.64-31.36 559.49-30.21L559.49-30.21L559.49-30.21Q556.74-27.65 553.34-27.65L553.34-27.65L553.34-27.65Q552-27.65 550.72-28.10L550.72-28.10L550.72-28.10Q550.98-30.02 550.98-32.26L550.98-32.26L550.98-32.26Q550.98-34.50 550.82-35.52L550.82-35.52L550.82-35.52Q550.66-36.54 550.27-37.38L550.27-37.38L550.27-37.38Q549.44-39.10 547.62-39.10L547.62-39.10L547.62-39.10Q545.79-39.10 543.78-37.15L543.78-37.15L543.78-37.15Q541.76-35.20 540.16-32L540.16-32L540.16-32Q536.64-24.83 536.64-16.19L536.64-16.19L536.64-16.19Q536.64-12.22 538.18-9.41L538.18-9.41L538.18-9.41Q539.84-6.34 542.78-6.34L542.78-6.34L542.78-6.34Q543.81-6.34 544.74-6.85L544.74-6.85L544.74-6.85Q545.66-7.36 546.05-7.74L546.05-7.74L548.10-20.61ZM576.38-8.90L576.38-8.90L576.38-8.90Q576.38-16.26 585.98-20.93L585.98-20.93L585.98-20.93Q581.76-24.38 581.76-28.86L581.76-28.86L581.76-28.86Q581.76-35.01 586.88-39.30L586.88-39.30L586.88-39.30Q591.94-43.52 599.49-43.52L599.49-43.52L599.49-43.52Q604.61-43.52 607.74-41.09L607.74-41.09L607.74-41.09Q610.88-38.66 610.88-35.01L610.88-35.01L610.88-35.01Q610.88-29.44 605.25-25.60L605.25-25.60L605.25-25.60Q603.65-24.51 601.92-23.74L601.92-23.74L601.92-23.74Q606.08-20.29 607.10-18.82L607.10-18.82L607.10-18.82Q608.83-16.45 608.83-13.57L608.83-13.57L608.83-13.57Q608.83-10.69 607.39-7.87L607.39-7.87L607.39-7.87Q605.95-5.06 603.39-3.07L603.39-3.07L603.39-3.07Q598.02 1.28 590.14 1.28L590.14 1.28L590.14 1.28Q583.87 1.28 580.10-1.54L580.10-1.54L580.10-1.54Q576.38-4.35 576.38-8.90ZM594.30-13.63L589.82-17.41L589.82-17.41Q586.56-14.91 586.56-10.69L586.56-10.69L586.56-10.69Q586.56-8.45 587.62-6.91L587.62-6.91L587.62-6.91Q588.67-5.38 590.66-5.38L590.66-5.38L590.66-5.38Q592.64-5.38 594.14-6.85L594.14-6.85L594.14-6.85Q595.65-8.32 595.65-10.56L595.65-10.56L595.65-10.56Q595.65-12.54 594.30-13.63L594.30-13.63ZM594.18-29.70L597.95-26.88L597.95-26.88Q601.47-28.54 601.47-32.45L601.47-32.45L601.47-32.45Q601.47-34.50 600.38-35.84L600.38-35.84L600.38-35.84Q599.30-37.18 597.31-37.18L597.31-37.18L597.31-37.18Q595.33-37.18 594.02-36.03L594.02-36.03L594.02-36.03Q592.70-34.88 592.70-33.41L592.70-33.41L592.70-33.41Q592.70-30.91 594.18-29.70L594.18-29.70ZM615.94-10.37L615.94-10.37L615.94-10.37Q613.89-11.84 613.89-14.66L613.89-14.66L613.89-14.66Q613.89-16.19 614.66-17.44L614.66-17.44L614.66-17.44Q615.42-18.69 616.96-18.88L616.96-18.88L629.57-18.88L629.57-18.88Q631.68-18.88 632.32-20.16L632.32-20.16L632.32-20.16Q633.34-19.58 633.79-18.37L633.79-18.37L633.79-18.37Q634.24-17.15 634.24-15.87L634.24-15.87L634.24-15.87Q634.24-14.59 633.25-13.34L633.25-13.34L633.25-13.34Q632.26-12.10 630.78-11.97L630.78-11.97L619.07-11.97L619.07-11.97Q617.73-11.97 617.09-11.55L617.09-11.55L617.09-11.55Q616.45-11.14 615.94-10.37ZM659.39-23.10L659.39-23.10L659.39-23.10Q667.84-20.93 667.84-12.67L667.84-12.67L667.84-12.67Q667.84-6.72 662.78-2.82L662.78-2.82L662.78-2.82Q657.41 1.28 648.58 1.28L648.58 1.28L648.58 1.28Q643.33 1.28 640.19-0.74L640.19-0.74L640.19-0.74Q637.06-2.75 637.06-6.08L637.06-6.08L637.06-6.08Q637.06-9.41 639.55-11.46L639.55-11.46L639.55-11.46Q640.83-9.09 643.10-8L643.10-8L643.10-8Q645.38-6.91 648.29-6.91L648.29-6.91L648.29-6.91Q651.20-6.91 653.06-8.45L653.06-8.45L653.06-8.45Q654.91-9.98 654.91-12.99L654.91-12.99L654.91-12.99Q654.91-18.69 647.10-18.69L647.10-18.69L648.19-24.45L648.19-24.45Q657.54-25.98 657.54-30.59L657.54-30.59L657.54-30.59Q657.54-32.45 656.26-33.47L656.26-33.47L656.26-33.47Q654.98-34.50 652.54-34.50L652.54-34.50L652.54-34.50Q648.26-34.50 644.48-30.53L644.48-30.53L644.48-30.53Q643.26-30.85 642.75-31.71L642.75-31.71L642.75-31.71Q642.24-32.58 642.24-34.37L642.24-34.37L642.24-34.37Q642.24-36.16 643.52-37.86L643.52-37.86L643.52-37.86Q644.80-39.55 647.04-40.83L647.04-40.83L647.04-40.83Q651.84-43.52 658.30-43.52L658.30-43.52L658.30-43.52Q663.23-43.52 666.37-40.96L666.37-40.96L666.37-40.96Q669.63-38.34 669.63-34.43L669.63-34.43L669.63-34.43Q669.63-30.91 666.82-27.84L666.82-27.84L666.82-27.84Q664-24.77 659.39-23.10Z" fill="#eb6c6c"></path></g></g><style>text {
  font-size: 64px;
  font-family: Arial Black;
  dominant-baseline: central;
  text-anchor: middle;
}</style></svg>